<svg xmlns="http://www.w3.org/2000/svg" viewBox="0 0 360 96" width="360" height="96">
  <rect x="8" y="16" width="64" height="64" rx="16" fill="#ffffff" fill-opacity="0.12"/>
  <g fill="#ffffff" transform="translate(16 27) scale(2)">
    <path d="M12 1 1.6 6.3a.8.8 0 0 0 0 1.4l2.4 1.23V14a.8.8 0 0 0 1.6 0V9.75l6.4 3.27 10.4-5.32a.8.8 0 0 0 0-1.4L12 1Z"/>
    <path d="M6.5 11.1v2.55c0 .62.34 1.19.9 1.48 1.2.62 2.85 1.07 4.6 1.07s3.4-.45 4.6-1.07c.56-.29.9-.86.9-1.48V11.1L12 13.93 6.5 11.1Z"/>
  </g>
  <text x="88" y="48" font-family="Tahoma, Arial, sans-serif" font-size="40" font-weight="700" fill="#ffffff">سناتر</text>
  <text x="88" y="72" font-family="Segoe UI, Arial, sans-serif" font-size="18" letter-spacing="0.5" fill="#c7d2fe">Sanater.tech</text>
</svg>
