<svg xmlns="http://www.w3.org/2000/svg" viewBox="0 0 64 64" width="64" height="64">
  <defs>
    <linearGradient id="g" x1="0" y1="0" x2="1" y2="1">
      <stop offset="0" stop-color="#6366f1"/>
      <stop offset="1" stop-color="#4f46e5"/>
    </linearGradient>
  </defs>
  <rect width="64" height="64" rx="16" fill="url(#g)"/>
  <g fill="#ffffff" transform="translate(8 11) scale(2)">
    <path d="M12 1 1.6 6.3a.8.8 0 0 0 0 1.4l2.4 1.23V14a.8.8 0 0 0 1.6 0V9.75l6.4 3.27 10.4-5.32a.8.8 0 0 0 0-1.4L12 1Z"/>
    <path d="M6.5 11.1v2.55c0 .62.34 1.19.9 1.48 1.2.62 2.85 1.07 4.6 1.07s3.4-.45 4.6-1.07c.56-.29.9-.86.9-1.48V11.1L12 13.93 6.5 11.1Z"/>
  </g>
</svg>
