<svg xmlns="http://www.w3.org/2000/svg" viewBox="0 0 1200 630" width="1200" height="630">
  <defs>
    <linearGradient id="bg" x1="0" y1="0" x2="0" y2="1">
      <stop offset="0" stop-color="#eef2ff"/>
      <stop offset="1" stop-color="#ffffff"/>
    </linearGradient>
    <linearGradient id="mark" x1="0" y1="0" x2="1" y2="1">
      <stop offset="0" stop-color="#6366f1"/>
      <stop offset="1" stop-color="#4f46e5"/>
    </linearGradient>
  </defs>
  <rect width="1200" height="630" fill="url(#bg)"/>
  <g transform="translate(490 140)">
    <rect width="120" height="120" rx="28" fill="url(#mark)"/>
    <g fill="#ffffff" transform="translate(18 22) scale(3.5)">
      <path d="M12 1 1.6 6.3a.8.8 0 0 0 0 1.4l2.4 1.23V14a.8.8 0 0 0 1.6 0V9.75l6.4 3.27 10.4-5.32a.8.8 0 0 0 0-1.4L12 1Z"/>
      <path d="M6.5 11.1v2.55c0 .62.34 1.19.9 1.48 1.2.62 2.85 1.07 4.6 1.07s3.4-.45 4.6-1.07c.56-.29.9-.86.9-1.48V11.1L12 13.93 6.5 11.1Z"/>
    </g>
  </g>
  <text x="600" y="380" text-anchor="middle" font-family="Segoe UI, Arial, sans-serif" font-size="72" font-weight="800" fill="#1e1b4b">Sanater.tech</text>
  <text x="600" y="438" text-anchor="middle" font-family="Segoe UI, Arial, sans-serif" font-size="30" fill="#6b7280">Tutoring centers management platform</text>
</svg>
